# xmcd
#
# Track frame offsets:
#	150
#	27550
#	50952
#	71790
#	94937
#	113987
#	137417
#	155345
#	176870
#	200155
#
# Disc length: 2922 seconds
#
# Revision: 2
# Processed by: cddbd v1.4PL0 Copyright (c) Steve Scherf et al.
# Submitted via: EasyCDDAExtractor 5.0.6
#
DISCID=9b0b680a
DTITLE=Caña Brava - Hay Mucha Alegria
DYEAR=1900
DGENRE=Merengue
TTITLE0=Hay Mucha Alegria
TTITLE1=Eres Mentirosa
TTITLE2=Como Un Amigo Mas
TTITLE3=Motivos Para Beber
TTITLE4=Enamoraito
TTITLE5=Cana Brava
TTITLE6=Sin Tu Amor
TTITLE7=Esta Brutal
TTITLE8=Si Ella Supiera
TTITLE9=El Ultimo Vals
EXTD=
EXTT0=
EXTT1=
EXTT2=
EXTT3=
EXTT4=
EXTT5=
EXTT6=
EXTT7=
EXTT8=
EXTT9=
PLAYORDER=
